<svg width="12" height="10" viewBox="0 0 12 10" fill="none" xmlns="http://www.w3.org/2000/svg">
<g clip-path="url(#clip0_59_1125)">
<path d="M6.03292 0.550847C7.44839 0.550847 8.86385 0.543459 10.2785 0.55331C11.4076 0.561519 11.9717 1.03602 11.9836 2.04332C12.0057 3.90767 12.0049 5.77203 11.9836 7.63638C11.9717 8.69375 11.4263 9.16497 10.2351 9.16908C7.40421 9.17975 4.57413 9.17975 1.7432 9.16908C0.521453 9.16333 0.00913339 8.68062 0.0048853 7.56086C-0.00191164 5.77285 -0.00106202 3.98484 0.00403568 2.19765C0.00828377 1.00401 0.519754 0.554952 1.8715 0.550847C3.25807 0.546742 4.6455 0.550026 6.03292 0.550847ZM5.93946 8.12156C7.298 8.12156 8.65654 8.12813 10.0142 8.1191C10.7542 8.11417 10.8103 8.07066 10.8146 7.43525C10.8256 5.72441 10.8248 4.01357 10.8146 2.30273C10.8103 1.65255 10.7585 1.60904 10.0363 1.6074C7.34813 1.60165 4.65994 1.60165 1.9709 1.6074C1.22324 1.60904 1.18415 1.64106 1.18076 2.28467C1.17226 3.99551 1.17226 5.70635 1.18076 7.41719C1.1833 8.07559 1.22494 8.11335 1.94966 8.11828C3.27931 8.12813 4.60981 8.12074 5.93946 8.12074V8.12156Z" fill="#626161"/>
<path d="M3.29613 2.99643H2.52128C2.32561 2.99643 2.16699 3.1497 2.16699 3.33876V4.08746C2.16699 4.27652 2.32561 4.42979 2.52128 4.42979H3.29613C3.4918 4.42979 3.65042 4.27652 3.65042 4.08746V3.33876C3.65042 3.1497 3.4918 2.99643 3.29613 2.99643Z" fill="#626161"/>
<path d="M6.38598 2.99643H5.61113C5.41546 2.99643 5.25684 3.1497 5.25684 3.33876V4.08746C5.25684 4.27652 5.41546 4.42979 5.61113 4.42979H6.38598C6.58165 4.42979 6.74027 4.27652 6.74027 4.08746V3.33876C6.74027 3.1497 6.58165 2.99643 6.38598 2.99643Z" fill="#626161"/>
<path d="M9.47973 2.99643H8.70488C8.50921 2.99643 8.35059 3.1497 8.35059 3.33876V4.08746C8.35059 4.27652 8.50921 4.42979 8.70488 4.42979H9.47973C9.6754 4.42979 9.83402 4.27652 9.83402 4.08746V3.33876C9.83402 3.1497 9.6754 2.99643 9.47973 2.99643Z" fill="#626161"/>
<path d="M3.29613 5.5553H2.52128C2.32561 5.5553 2.16699 5.70856 2.16699 5.89763V6.64633C2.16699 6.83539 2.32561 6.98866 2.52128 6.98866H3.29613C3.4918 6.98866 3.65042 6.83539 3.65042 6.64633V5.89763C3.65042 5.70856 3.4918 5.5553 3.29613 5.5553Z" fill="#626161"/>
<path d="M6.38598 5.5553H5.61113C5.41546 5.5553 5.25684 5.70856 5.25684 5.89763V6.64633C5.25684 6.83539 5.41546 6.98866 5.61113 6.98866H6.38598C6.58165 6.98866 6.74027 6.83539 6.74027 6.64633V5.89763C6.74027 5.70856 6.58165 5.5553 6.38598 5.5553Z" fill="#626161"/>
<path d="M3.02745 0H2.78871C2.5311 0 2.32227 0.201784 2.32227 0.450696V1.71987C2.32227 1.96878 2.5311 2.17057 2.78871 2.17057H3.02745C3.28506 2.17057 3.49389 1.96878 3.49389 1.71987V0.450696C3.49389 0.201784 3.28506 0 3.02745 0Z" fill="#626161"/>
<path d="M9.21202 0H8.97328C8.71567 0 8.50684 0.201784 8.50684 0.450696V1.71987C8.50684 1.96878 8.71567 2.17057 8.97328 2.17057H9.21202C9.46963 2.17057 9.67846 1.96878 9.67846 1.71987V0.450696C9.67846 0.201784 9.46963 0 9.21202 0Z" fill="#626161"/>
</g>
<defs>
<clipPath id="clip0_59_1125">
<rect width="12" height="9.17647" fill="white"/>
</clipPath>
</defs>
</svg>
