<svg width="12" height="8" viewBox="0 0 12 8" fill="none" xmlns="http://www.w3.org/2000/svg">
<g clip-path="url(#clip0_59_1103)">
<path d="M11.7405 6.06477C11.0912 6.66098 10.478 7.21187 9.87963 7.77834C9.65516 7.99148 9.48947 7.95466 9.282 7.7571C8.75235 7.25365 8.21633 6.75586 7.66472 6.27648C7.39423 6.0414 7.52169 5.88208 7.70721 5.70364C7.88211 5.53512 8.01523 5.23772 8.32183 5.54928C8.51443 5.74471 8.73182 5.91536 8.92725 6.08884C9.15242 5.93873 9.09861 5.76029 9.09931 5.60805C9.10498 4.47581 9.11135 3.34358 9.09931 2.21205C9.09011 1.32764 8.74173 0.996967 7.83679 0.989178C7.20022 0.983513 6.56294 0.993426 5.92636 0.986345C5.37122 0.979972 5.36697 0.970059 5.36272 0.518298C5.35848 0.0452938 5.37689 0.0176783 5.88813 0.0113055C6.61887 0.00280838 7.35104 -0.00639679 8.08108 0.0134297C9.22819 0.0438776 10.0326 0.827733 10.0644 1.98192C10.0956 3.11345 10.0687 4.24568 10.0786 5.37792C10.0807 5.60309 10.0021 5.84809 10.1664 6.0499C10.3448 6.07822 10.4249 5.94227 10.5261 5.85588C10.9557 5.48956 11.3605 5.5599 11.7405 6.06689V6.06477Z" fill="#626161"/>
<path d="M1.49581 1.90693C1.19062 2.05563 1.00794 2.27655 0.807546 2.46915C0.530683 2.7354 0.396854 2.5081 0.244614 2.33603C0.0966236 2.17034 -0.15404 2.02164 0.13132 1.76177C0.706289 1.2392 1.28267 0.716631 1.84844 0.184148C2.0205 0.021995 2.15363 0.0163303 2.32711 0.177775C2.895 0.708842 3.46572 1.23708 4.04564 1.75469C4.33667 2.01385 4.10229 2.16468 3.94722 2.3247C3.79993 2.47623 3.68452 2.75876 3.39278 2.48544C3.17398 2.2808 2.98209 2.03509 2.70594 1.91684C2.58981 1.9834 2.57848 2.07616 2.57848 2.17105C2.57706 3.39675 2.56078 4.62175 2.5806 5.84745C2.59406 6.666 2.93606 6.98748 3.76595 7.00659C4.44925 7.02217 5.13256 7.00305 5.81587 7.01509C6.26975 7.02288 6.5105 7.42862 6.3087 7.82302C6.24851 7.94127 6.13451 7.97597 6.01272 7.97597C5.07096 7.97597 4.12495 8.05457 3.18814 7.93348C2.43049 7.83577 1.81091 7.20557 1.66717 6.45074C1.61477 6.1753 1.60698 5.88852 1.60486 5.60741C1.59777 4.6175 1.60698 3.62759 1.59848 2.63839C1.59636 2.41109 1.66009 2.17034 1.49369 1.90835L1.49581 1.90693Z" fill="#626161"/>
</g>
<defs>
<clipPath id="clip0_59_1103">
<rect width="11.7401" height="8" fill="white"/>
</clipPath>
</defs>
</svg>
